<svg width="26" height="27" viewBox="0 0 26 27" fill="none" xmlns="http://www.w3.org/2000/svg">
<g id="&#240;&#159;&#166;&#134; icon &#34;shopping cart&#34;">
<g id="Group">
<path id="Vector" d="M1 1.22247H3.1363C4.46228 1.22247 5.50585 2.36428 5.39535 3.67798L4.37632 15.9064C4.20443 17.9076 5.78822 19.6265 7.80174 19.6265H20.8773C22.6453 19.6265 24.1923 18.1777 24.3273 16.4221L24.9903 7.21391C25.1376 5.17584 23.5907 3.51837 21.5403 3.51837H5.69003" stroke="#292D32" stroke-width="2" stroke-miterlimit="10" stroke-linecap="round" stroke-linejoin="round"/>
<path id="Vector_2" d="M18.4954 25.7775C19.343 25.7775 20.0301 25.0905 20.0301 24.2428C20.0301 23.3952 19.343 22.7081 18.4954 22.7081C17.6477 22.7081 16.9607 23.3952 16.9607 24.2428C16.9607 25.0905 17.6477 25.7775 18.4954 25.7775Z" stroke="#292D32" stroke-width="2" stroke-miterlimit="10" stroke-linecap="round" stroke-linejoin="round"/>
<path id="Vector_3" d="M8.67336 25.7775C9.52095 25.7775 10.2081 25.0905 10.2081 24.2428C10.2081 23.3952 9.52095 22.7081 8.67336 22.7081C7.82577 22.7081 7.13867 23.3952 7.13867 24.2428C7.13867 25.0905 7.82577 25.7775 8.67336 25.7775Z" stroke="#292D32" stroke-width="2" stroke-miterlimit="10" stroke-linecap="round" stroke-linejoin="round"/>
<path id="Vector_4" d="M9.59424 8.58899H24.3273" stroke="#292D32" stroke-width="2" stroke-miterlimit="10" stroke-linecap="round" stroke-linejoin="round"/>
</g>
</g>
</svg>
